<svg width="29" height="20" viewBox="0 0 29 20" fill="none" xmlns="http://www.w3.org/2000/svg">
<path d="M27.55 3.52941H1.45C1.06544 3.52941 0.696623 3.34349 0.424695 3.01254C0.152767 2.6816 0 2.23274 0 1.76471C0 1.29668 0.152767 0.847817 0.424695 0.51687C0.696623 0.185924 1.06544 0 1.45 0H27.55C27.9346 0 28.3034 0.185924 28.5753 0.51687C28.8472 0.847817 29 1.29668 29 1.76471C29 2.23274 28.8472 2.6816 28.5753 3.01254C28.3034 3.34349 27.9346 3.52941 27.55 3.52941ZM22.7167 11.7647H6.28333C5.89877 11.7647 5.52996 11.5788 5.25803 11.2478C4.9861 10.9169 4.83333 10.468 4.83333 10C4.83333 9.53197 4.9861 9.08311 5.25803 8.75216C5.52996 8.42122 5.89877 8.23529 6.28333 8.23529H22.7167C23.1012 8.23529 23.47 8.42122 23.742 8.75216C24.0139 9.08311 24.1667 9.53197 24.1667 10C24.1667 10.468 24.0139 10.9169 23.742 11.2478C23.47 11.5788 23.1012 11.7647 22.7167 11.7647ZM16.9167 20H12.0833C11.6988 20 11.33 19.8141 11.058 19.4831C10.7861 19.1522 10.6333 18.7033 10.6333 18.2353C10.6333 17.7673 10.7861 17.3184 11.058 16.9875C11.33 16.6565 11.6988 16.4706 12.0833 16.4706H16.9167C17.3012 16.4706 17.67 16.6565 17.942 16.9875C18.2139 17.3184 18.3667 17.7673 18.3667 18.2353C18.3667 18.7033 18.2139 19.1522 17.942 19.4831C17.67 19.8141 17.3012 20 16.9167 20Z" fill="black"/>
</svg>
