<svg width="50" height="50" viewBox="0 0 50 50" fill="none" xmlns="http://www.w3.org/2000/svg">
<path d="M25 4.1665C22.2641 4.1665 19.555 4.70537 17.0274 5.75235C14.4998 6.79932 12.2032 8.33389 10.2686 10.2684C6.36159 14.1755 4.16666 19.4745 4.16666 24.9998C4.16666 34.2082 10.1458 42.0207 18.4167 44.7915C19.4583 44.9582 19.7917 44.3123 19.7917 43.7498V40.229C14.0208 41.479 12.7917 37.4373 12.7917 37.4373C11.8333 35.0207 10.4792 34.3748 10.4792 34.3748C8.58332 33.0832 10.625 33.1248 10.625 33.1248C12.7083 33.2707 13.8125 35.2707 13.8125 35.2707C15.625 38.4373 18.6875 37.4998 19.875 36.9998C20.0625 35.6457 20.6042 34.729 21.1875 34.2082C16.5625 33.6873 11.7083 31.8957 11.7083 23.9582C11.7083 21.6457 12.5 19.7915 13.8542 18.3123C13.6458 17.7915 12.9167 15.6248 14.0625 12.8123C14.0625 12.8123 15.8125 12.2498 19.7917 14.9373C21.4375 14.479 23.2292 14.2498 25 14.2498C26.7708 14.2498 28.5625 14.479 30.2083 14.9373C34.1875 12.2498 35.9375 12.8123 35.9375 12.8123C37.0833 15.6248 36.3542 17.7915 36.1458 18.3123C37.5 19.7915 38.2917 21.6457 38.2917 23.9582C38.2917 31.9165 33.4167 33.6665 28.7708 34.1873C29.5208 34.8332 30.2083 36.104 30.2083 38.0415V43.7498C30.2083 44.3123 30.5417 44.979 31.6042 44.7915C39.875 41.9998 45.8333 34.2082 45.8333 24.9998C45.8333 22.264 45.2945 19.5549 44.2475 17.0273C43.2005 14.4996 41.6659 12.203 39.7314 10.2684C37.7968 8.33389 35.5002 6.79932 32.9726 5.75235C30.4449 4.70537 27.7359 4.1665 25 4.1665Z" fill="black"/>
</svg>
