<svg width="50" height="55" viewBox="0 0 50 55" fill="none" xmlns="http://www.w3.org/2000/svg">
<path d="M45.8333 0H4.16667C3.0616 0 2.00179 0.482885 1.22039 1.34243C0.438987 2.20197 0 3.36776 0 4.58333V50.4167C0 51.6322 0.438987 52.798 1.22039 53.6576C2.00179 54.5171 3.0616 55 4.16667 55H45.8333C46.9384 55 47.9982 54.5171 48.7796 53.6576C49.561 52.798 50 51.6322 50 50.4167V4.58333C50 3.36776 49.561 2.20197 48.7796 1.34243C47.9982 0.482885 46.9384 0 45.8333 0ZM41.6667 43.5417H8.33333C7.7808 43.5417 7.2509 43.3002 6.86019 42.8705C6.46949 42.4407 6.25 41.8578 6.25 41.25C6.25 40.6422 6.46949 40.0593 6.86019 39.6295C7.2509 39.1998 7.7808 38.9583 8.33333 38.9583H41.6667C42.2192 38.9583 42.7491 39.1998 43.1398 39.6295C43.5305 40.0593 43.75 40.6422 43.75 41.25C43.75 41.8578 43.5305 42.4407 43.1398 42.8705C42.7491 43.3002 42.2192 43.5417 41.6667 43.5417ZM41.6667 29.7917H8.33333C7.7808 29.7917 7.2509 29.5502 6.86019 29.1205C6.46949 28.6907 6.25 28.1078 6.25 27.5C6.25 26.8922 6.46949 26.3093 6.86019 25.8795C7.2509 25.4498 7.7808 25.2083 8.33333 25.2083H41.6667C42.2192 25.2083 42.7491 25.4498 43.1398 25.8795C43.5305 26.3093 43.75 26.8922 43.75 27.5C43.75 28.1078 43.5305 28.6907 43.1398 29.1205C42.7491 29.5502 42.2192 29.7917 41.6667 29.7917ZM41.6667 16.0417H8.33333C7.7808 16.0417 7.2509 15.8002 6.86019 15.3705C6.46949 14.9407 6.25 14.3578 6.25 13.75C6.25 13.1422 6.46949 12.5593 6.86019 12.1295C7.2509 11.6998 7.7808 11.4583 8.33333 11.4583H41.6667C42.2192 11.4583 42.7491 11.6998 43.1398 12.1295C43.5305 12.5593 43.75 13.1422 43.75 13.75C43.75 14.3578 43.5305 14.9407 43.1398 15.3705C42.7491 15.8002 42.2192 16.0417 41.6667 16.0417Z" fill="black"/>
</svg>
