<svg width="30" height="35" viewBox="0 0 30 35" fill="none" xmlns="http://www.w3.org/2000/svg">
<path d="M15 26.6667C15.9946 26.6667 16.9484 26.3155 17.6516 25.6904C18.3549 25.0652 18.75 24.2174 18.75 23.3333C18.75 22.4493 18.3549 21.6014 17.6516 20.9763C16.9484 20.3512 15.9946 20 15 20C14.0054 20 13.0516 20.3512 12.3484 20.9763C11.6451 21.6014 11.25 22.4493 11.25 23.3333C11.25 24.2174 11.6451 25.0652 12.3484 25.6904C13.0516 26.3155 14.0054 26.6667 15 26.6667ZM26.25 11.6667C27.2446 11.6667 28.1984 12.0179 28.9016 12.643C29.6049 13.2681 30 14.1159 30 15V31.6667C30 32.5507 29.6049 33.3986 28.9016 34.0237C28.1984 34.6488 27.2446 35 26.25 35H3.75C2.75544 35 1.80161 34.6488 1.09835 34.0237C0.395088 33.3986 0 32.5507 0 31.6667V15C0 14.1159 0.395088 13.2681 1.09835 12.643C1.80161 12.0179 2.75544 11.6667 3.75 11.6667H5.625V8.33333C5.625 6.1232 6.61272 4.00358 8.37087 2.44078C10.129 0.877974 12.5136 0 15 0C16.2311 0 17.4502 0.215548 18.5877 0.634337C19.7251 1.05313 20.7586 1.66696 21.6291 2.44078C22.4997 3.2146 23.1902 4.13326 23.6614 5.1443C24.1325 6.15535 24.375 7.23898 24.375 8.33333V11.6667H26.25ZM15 3.33333C13.5082 3.33333 12.0774 3.86012 11.0225 4.7978C9.96763 5.73548 9.375 7.00725 9.375 8.33333V11.6667H20.625V8.33333C20.625 7.00725 20.0324 5.73548 18.9775 4.7978C17.9226 3.86012 16.4918 3.33333 15 3.33333Z" fill="black"/>
</svg>
