<svg width="60" height="60" viewBox="0 0 60 60" fill="none" xmlns="http://www.w3.org/2000/svg">
<path d="M20.5025 24.405C20.5437 24.2841 20.5533 24.1547 20.5304 24.029C20.5075 23.9034 20.453 23.7856 20.3718 23.687C20.2907 23.5883 20.1857 23.512 20.0668 23.4653C19.948 23.4186 19.8191 23.403 19.6925 23.42L5.65253 25.42C5.51468 25.438 5.38454 25.4938 5.27661 25.5814C5.16868 25.669 5.08723 25.7849 5.04133 25.9161C4.99543 26.0473 4.9869 26.1887 5.01669 26.3245C5.04648 26.4603 5.11342 26.5851 5.21003 26.685L15.21 37.005C15.2985 37.101 15.4109 37.1718 15.5357 37.2101C15.6605 37.2485 15.7932 37.253 15.9203 37.2233C16.0474 37.1935 16.1644 37.1306 16.2592 37.0408C16.354 36.9511 16.4233 36.8378 16.46 36.7125L20.5025 24.405Z" fill="#E2BB5E"/>
<path d="M15.4001 53.3125C15.3528 53.4523 15.3487 53.6031 15.3883 53.7452C15.4279 53.8874 15.5094 54.0143 15.6221 54.1095C15.7348 54.2048 15.8736 54.2638 16.0204 54.2791C16.1672 54.2943 16.3152 54.265 16.4451 54.195L29.5751 47.96C29.6721 47.9161 29.7774 47.8935 29.8838 47.8935C29.9903 47.8935 30.0956 47.9161 30.1926 47.96L43.9101 54.18C44.0432 54.2391 44.1906 54.2581 44.3343 54.2348C44.4781 54.2115 44.6119 54.1469 44.7195 54.0488C44.8272 53.9507 44.9039 53.8234 44.9404 53.6825C44.9769 53.5415 44.9716 53.393 44.9251 53.255C42.3376 45.46 40.0001 37.755 37.5001 29.9775C37.4547 29.8454 37.3727 29.7289 37.2637 29.6416C37.1546 29.5543 37.0231 29.4998 36.8843 29.4843C36.7455 29.4689 36.6051 29.4932 36.4796 29.5544C36.354 29.6155 36.2484 29.7111 36.1751 29.83L30.6351 39.77C30.5691 39.8873 30.4728 39.9847 30.3563 40.052C30.2397 40.1193 30.1072 40.154 29.9726 40.1525H29.7376C29.604 40.1499 29.4736 40.1117 29.3598 40.0418C29.2459 39.9719 29.1528 39.8729 29.0901 39.755L23.7076 29.86C23.645 29.7424 23.5523 29.6437 23.439 29.5738C23.3256 29.5039 23.1957 29.4655 23.0626 29.4625H22.9876C22.8262 29.4602 22.6685 29.5108 22.5385 29.6065C22.4085 29.7021 22.3134 29.8377 22.2676 29.9925C19.8391 37.7241 17.5496 45.4987 15.4001 53.3125Z" fill="url(#paint0_linear_268_20)"/>
<path d="M43.44 36.4926C43.4781 36.6149 43.5474 36.7251 43.6411 36.8125C43.7347 36.8998 43.8495 36.9613 43.9742 36.9908C44.0988 37.0203 44.229 37.0169 44.3519 36.9808C44.4747 36.9447 44.5861 36.8773 44.675 36.7851L54.775 26.6851C54.8738 26.586 54.943 26.4615 54.9752 26.3254C55.0073 26.1893 55.0009 26.0469 54.9568 25.9142C54.9128 25.7814 54.8327 25.6635 54.7256 25.5737C54.6184 25.4838 54.4884 25.4254 54.35 25.4051L40.3825 23.4501C40.2565 23.4313 40.1278 23.4449 40.0085 23.4897C39.8891 23.5345 39.7832 23.6089 39.7007 23.706C39.6181 23.8031 39.5616 23.9196 39.5366 24.0445C39.5116 24.1694 39.5188 24.2987 39.5575 24.4201L43.44 36.4926Z" fill="#DBA527"/>
<path d="M35.6176 23.2C35.6647 23.0906 35.689 22.9728 35.689 22.8537C35.689 22.7347 35.6647 22.6168 35.6176 22.5075L35.5426 22.3325L30.5926 6.27499C30.5524 6.11647 30.4606 5.97587 30.3315 5.87543C30.2025 5.77499 30.0436 5.72046 29.8801 5.72046C29.7166 5.72046 29.5577 5.77499 29.4287 5.87543C29.2996 5.97587 29.2077 6.11647 29.1676 6.27499L24.3076 22.3325L24.2351 22.5675C24.1778 22.7509 24.1885 22.9488 24.2651 23.125L29.0726 34.2125C29.134 34.3407 29.2294 34.4495 29.3484 34.5271C29.4675 34.6047 29.6056 34.6481 29.7476 34.6525H29.9251C30.0678 34.651 30.2071 34.6088 30.3267 34.5308C30.4463 34.4529 30.5411 34.3425 30.6001 34.2125L35.6001 23.2H35.6176Z" fill="url(#paint1_linear_268_20)"/>
<defs>
<linearGradient id="paint0_linear_268_20" x1="-12.4924" y1="0.799977" x2="71.9451" y2="0.799977" gradientUnits="userSpaceOnUse">
<stop offset="0.49" stop-color="#E2BB5E"/>
<stop offset="0.5" stop-color="#DBA527"/>
</linearGradient>
<linearGradient id="paint1_linear_268_20" x1="5.0076" y1="26.9475" x2="55.0001" y2="26.9475" gradientUnits="userSpaceOnUse">
<stop offset="0.49" stop-color="#E2BB5E"/>
<stop offset="0.5" stop-color="#DBA527"/>
</linearGradient>
</defs>
</svg>
