<svg width="53" height="53" viewBox="0 0 53 53" fill="none" xmlns="http://www.w3.org/2000/svg">
<path d="M51.799 19.0182L51.8498 19.1648L52.0385 19.7979L52.1964 20.3661L52.2637 20.6257L52.3741 21.0955C53.806 27.6422 52.7609 34.495 49.4455 40.2983C46.1374 46.1195 40.7903 50.4677 34.4655 52.4797L34.0195 52.6139L33.472 52.7571L32.6805 52.9472C32.4009 53.0117 32.1112 53.0172 31.8295 52.9632C31.5477 52.9091 31.28 52.7969 31.043 52.6333C30.806 52.4698 30.6048 52.2585 30.452 52.0127C30.2991 51.7668 30.198 51.4917 30.1547 51.2045C30.066 50.615 30.1989 50.0132 30.5273 49.5183C30.8556 49.0234 31.3554 48.6714 31.9276 48.5322L32.5646 48.37C32.962 48.2641 33.3038 48.1623 33.5901 48.0646C38.6694 46.3269 42.9478 42.7696 45.6215 38.0611C48.311 33.3561 49.2108 27.8173 48.1517 22.487L48.0755 22.1369L47.974 21.7286L47.847 21.261L47.6947 20.7353C47.5241 20.1618 47.5723 19.5443 47.83 19.0051C48.0876 18.466 48.5358 18.0447 49.0856 17.8247C49.3411 17.7224 49.614 17.6722 49.8886 17.6768C50.1633 17.6814 50.4344 17.7409 50.6864 17.8517C50.9384 17.9626 51.1663 18.1226 51.3572 18.3228C51.5481 18.523 51.6982 18.7593 51.799 19.0182ZM3.73722 17.8079C3.78505 17.8228 3.83215 17.8393 3.87852 17.8572C4.42711 18.0738 4.87536 18.4914 5.13441 19.0272C5.39346 19.5629 5.44441 20.1778 5.27716 20.7498C5.07846 21.4277 4.93495 21.9918 4.84664 22.4422C3.79213 27.7683 4.69302 33.3013 7.3801 38.0018C10.0562 42.7145 14.3398 46.2738 19.4248 48.0098L19.7626 48.1183L19.9547 48.1742L20.3852 48.2928L21.1513 48.4841C21.7268 48.6212 22.2305 48.9725 22.5624 49.4684C22.8942 49.9642 23.0301 50.5683 22.9429 51.1609C22.8612 51.7165 22.565 52.2164 22.1195 52.5508C21.674 52.8852 21.1157 53.0266 20.5673 52.9439L20.415 52.9159L19.7791 52.7649L19.2162 52.6195L18.7238 52.4797L18.503 52.4126C12.1912 50.3951 6.85668 46.0503 3.55507 40.2379C0.233545 34.4244 -0.809475 27.558 0.633041 21.0015L0.718042 20.6436L0.828432 20.2241L1.04259 19.4802L1.12649 19.2006C1.20757 18.9353 1.33942 18.6889 1.51451 18.4753C1.6896 18.2617 1.9045 18.0851 2.14694 17.9557C2.38938 17.8263 2.6546 17.7465 2.92746 17.721C3.20033 17.6954 3.47548 17.7257 3.73722 17.8079ZM26.5505 8.94872C36.3057 8.94872 44.213 16.9612 44.213 26.8461C44.213 36.7311 36.3057 44.7435 26.5505 44.7435C16.7953 44.7435 8.88803 36.7311 8.88803 26.8461C8.88803 16.9612 16.7964 8.94872 26.5505 8.94872ZM26.5505 13.4231C19.2349 13.4231 13.3036 19.4332 13.3036 26.8461C13.3036 34.259 19.2349 40.2692 26.5505 40.2692C33.8672 40.2692 39.7973 34.259 39.7973 26.8461C39.7973 19.4332 33.8672 13.4231 26.5505 13.4231ZM26.5505 2.01504e-05C33.1799 -0.0082177 39.5701 2.50965 44.4525 7.05383L44.7163 7.30775L45.0199 7.61425L45.3621 7.97443L45.7441 8.38719C45.9389 8.60025 46.0883 8.85172 46.183 9.1259C46.2777 9.40008 46.3156 9.69109 46.2944 9.98078C46.2732 10.2705 46.1932 10.5526 46.0596 10.8096C45.926 11.0666 45.7415 11.2929 45.5178 11.4745C45.0583 11.8475 44.4772 12.032 43.8898 11.9914C43.3024 11.9508 42.7515 11.6881 42.3463 11.2552C42.1063 10.998 41.8837 10.7679 41.6784 10.5651L41.292 10.1915L41.1154 10.0315C37.0908 6.44286 31.9115 4.46674 26.5505 4.47437C21.1846 4.46649 16.0008 6.44602 11.9745 10.0405L11.8487 10.1546L11.5694 10.423L11.2526 10.7418L10.7062 11.3179C9.8672 12.2228 8.4829 12.3246 7.52361 11.5528C7.30847 11.3797 7.1291 11.1654 6.99574 10.9221C6.86238 10.6788 6.77764 10.4112 6.74637 10.1346C6.71511 9.85812 6.73792 9.57805 6.81351 9.31046C6.8891 9.04287 7.01599 8.79299 7.18692 8.57511L7.28627 8.45654L7.73335 7.97443L8.13959 7.55161C8.3324 7.35548 8.5105 7.1821 8.67388 7.03146C13.5529 2.50169 19.9321 -0.00758744 26.5494 2.01504e-05" fill="black"/>
</svg>
