<svg width="28" height="28" viewBox="0 0 28 28" fill="none" xmlns="http://www.w3.org/2000/svg">
<path d="M14 0.666626C15.7681 0.666626 17.4638 1.369 18.714 2.61925C19.9643 3.86949 20.6667 5.56518 20.6667 7.33329C20.6667 9.1014 19.9643 10.7971 18.714 12.0473C17.4638 13.2976 15.7681 14 14 14C12.2319 14 10.5362 13.2976 9.28594 12.0473C8.0357 10.7971 7.33332 9.1014 7.33332 7.33329C7.33332 5.56518 8.0357 3.86949 9.28594 2.61925C10.5362 1.369 12.2319 0.666626 14 0.666626ZM14 17.3333C21.3667 17.3333 27.3333 20.3166 27.3333 24V27.3333H0.666656V24C0.666656 20.3166 6.63332 17.3333 14 17.3333Z" fill="black"/>
</svg>
